<svg width="18" height="18" viewBox="0 0 18 18" fill="none" xmlns="http://www.w3.org/2000/svg">
<path d="M13.7691 3.21375C13.4891 3.21375 13.2207 3.32494 13.0227 3.52288C12.8248 3.72082 12.7136 3.98927 12.7136 4.2692C12.7134 4.40788 12.7407 4.54522 12.7937 4.67338C12.8466 4.80153 12.9244 4.91799 13.0224 5.01609C13.1204 5.1142 13.2368 5.19202 13.3649 5.24512C13.4931 5.29822 13.6304 5.32554 13.7691 5.32554C14.049 5.32554 14.3175 5.21435 14.5154 5.01641C14.7134 4.81848 14.8246 4.55002 14.8246 4.27009C14.8247 4.13141 14.7975 3.99407 14.7445 3.86591C14.6915 3.73776 14.6138 3.6213 14.5157 3.52319C14.4177 3.42509 14.3013 3.34727 14.1732 3.29417C14.0451 3.24107 13.9078 3.21375 13.7691 3.21375Z" fill="white"/>
<path d="M9.07701 4.5675C7.90175 4.56869 6.77494 5.036 5.94382 5.86692C5.1127 6.69783 4.64513 7.82449 4.64371 8.99969C4.64513 10.175 5.11267 11.3017 5.94376 12.1328C6.77486 12.9638 7.90167 13.4314 9.07701 13.4328C10.2524 13.4314 11.3792 12.9638 12.2103 12.1328C13.0414 11.3017 13.5089 10.175 13.5103 8.99969C13.5089 7.82449 13.0413 6.69783 12.2102 5.86692C11.3791 5.036 10.2523 4.56869 9.07701 4.5675ZM9.07701 11.8393C8.32393 11.8386 7.6019 11.5391 7.06947 11.0065C6.53704 10.4739 6.23773 9.75185 6.23726 8.9988C6.23797 8.24591 6.53739 7.52405 7.06979 6.99168C7.6022 6.4593 8.32408 6.1599 9.07701 6.15919C9.82994 6.1599 10.5518 6.4593 11.0842 6.99168C11.6166 7.52405 11.916 8.24591 11.9168 8.9988C11.9163 9.75185 11.617 10.4739 11.0845 11.0065C10.5521 11.5391 9.8301 11.8386 9.07701 11.8393Z" fill="white"/>
<path d="M12.5971 18H5.40644C3.97307 17.9983 2.59889 17.4282 1.58534 16.4147C0.571797 15.4012 0.00165858 14.0271 0 12.5938V5.40707C0.00142166 3.97362 0.571457 2.59927 1.58503 1.58558C2.5986 0.571893 3.97292 0.00165893 5.40644 0H12.5936C14.0269 0.0016585 15.4011 0.571769 16.4147 1.58526C17.4282 2.59876 17.9983 3.97288 18 5.40618V12.5929C17.9986 14.0258 17.429 15.3996 16.4162 16.4132C15.4034 17.4267 14.03 17.9974 12.5971 18ZM5.40644 1.69374C4.42216 1.69492 3.47853 2.08643 2.78253 2.78239C2.08654 3.47836 1.69501 4.42194 1.69382 5.40618V12.5929C1.69359 13.5781 2.08449 14.5231 2.78064 15.2202C3.47679 15.9173 4.42123 16.3096 5.40644 16.3107H12.5936C13.5781 16.3098 14.522 15.9184 15.2184 15.2225C15.9147 14.5265 16.3065 13.5828 16.308 12.5983V5.41155C16.3065 4.42707 15.9147 3.48335 15.2184 2.78739C14.522 2.09143 13.5781 1.70006 12.5936 1.69911L5.40644 1.69374Z" fill="white"/>
</svg>
