<svg width="20" height="50" viewBox="0 0 50 50" fill="none" xmlns="http://www.w3.org/2000/svg">
<path d="M25 25C26.7188 25 28.1901 24.5104 29.4141 23.5312C30.638 22.5521 31.25 21.375 31.25 20C31.25 18.625 30.638 17.4479 29.4141 16.4688C28.1901 15.4896 26.7188 15 25 15C23.2812 15 21.8099 15.4896 20.5859 16.4688C19.362 17.4479 18.75 18.625 18.75 20C18.75 21.375 19.362 22.5521 20.5859 23.5312C21.8099 24.5104 23.2812 25 25 25ZM25 43.375C31.3542 38.7083 36.0677 34.4688 39.1406 30.6562C42.2135 26.8438 43.75 23.4583 43.75 20.5C43.75 15.9583 41.9401 12.2396 38.3203 9.34375C34.7005 6.44792 30.2604 5 25 5C19.7396 5 15.2995 6.44792 11.6797 9.34375C8.0599 12.2396 6.25 15.9583 6.25 20.5C6.25 23.4583 7.78646 26.8438 10.8594 30.6562C13.9323 34.4688 18.6458 38.7083 25 43.375ZM25 50C16.6146 44.2917 10.3516 38.9896 6.21094 34.0938C2.07031 29.1979 0 24.6667 0 20.5C0 14.25 2.51302 9.27083 7.53906 5.5625C12.5651 1.85417 18.3854 0 25 0C31.6146 0 37.4349 1.85417 42.4609 5.5625C47.487 9.27083 50 14.25 50 20.5C50 24.6667 47.9297 29.1979 43.7891 34.0938C39.6484 38.9896 33.3854 44.2917 25 50Z" fill="white"/>
</svg>
