<svg width="94" height="93" viewBox="-5 0 94 93" fill="none" xmlns="http://www.w3.org/2000/svg">
<g filter="url(#filter0_f_31_118)">
<g filter="url(#filter1_d_31_118)">
<path d="M22.209 49.8647C22.2074 54.2159 23.3535 58.4633 25.5319 62.2073L22 75L35.1975 71.5672C38.8336 73.5344 42.9276 74.571 47.0939 74.5726H47.1047C60.8251 74.5726 71.9942 63.4962 72 49.8847C72.0022 43.2877 69.415 37.0848 64.715 32.4185C60.0143 27.7522 53.7639 25.1811 47.1047 25.1782C33.3819 25.1782 22.2145 36.2528 22.209 49.8647Z" fill="#E1E7E2"/>
</g>
<path d="M22.209 49.8647C22.2074 54.2159 23.3535 58.4633 25.5319 62.2073L22 75L35.1975 71.5672C38.8336 73.5344 42.9276 74.571 47.0939 74.5726H47.1047C60.8251 74.5726 71.9942 63.4962 72 49.8847C72.0022 43.2877 69.415 37.0848 64.715 32.4185C60.0143 27.7522 53.7639 25.1811 47.1047 25.1782C33.3819 25.1782 22.2145 36.2528 22.209 49.8647Z" fill="black" fill-opacity="0.2"/>
</g>
<path d="M23.1029 49.6072C23.1017 53.7921 24.2069 57.8783 26.3086 61.48L22.9019 73.7866L35.6312 70.4844C39.1383 72.3755 43.0868 73.3734 47.1054 73.3749H47.1162C60.3496 73.3749 71.1221 62.7206 71.1275 49.6257C71.1302 43.2801 68.6347 37.3134 64.1008 32.8245C59.5677 28.3356 53.5387 25.8622 47.1153 25.8594C33.8802 25.8594 23.1083 36.5128 23.1029 49.6073" fill="url(#paint0_linear_31_118)"/>
<path d="M22.244 49.5995C22.2424 53.9353 23.3875 58.1677 25.564 61.8985L22.0352 74.646L35.2211 71.2254C38.854 73.1855 42.9444 74.2186 47.1071 74.2201H47.1178C60.8262 74.2201 71.9854 63.1828 71.9912 49.6195C71.9936 43.0456 69.4086 36.8647 64.7127 32.2148C60.0162 27.565 53.7712 25.0031 47.1178 25.0001C33.4072 25.0001 22.2496 36.0356 22.244 49.5995ZM30.0963 61.2562L29.6041 60.4827C27.5345 57.2271 26.442 53.4646 26.4437 49.6011C26.4481 38.3272 35.7219 29.1553 47.1257 29.1553C52.648 29.1575 57.8381 31.2871 61.7419 35.1519C65.6452 39.0164 67.7931 44.1539 67.7915 49.6178C67.7867 60.8921 58.5125 70.0653 47.1179 70.0653H47.1098C43.3995 70.0634 39.7608 69.0778 36.5873 67.2146L35.832 66.7718L28.0072 68.8014L30.0963 61.2562Z" fill="url(#paint1_linear_31_118)"/>
<path fill-rule="evenodd" clip-rule="evenodd" d="M40.902 39.3151C40.4365 38.2912 39.9464 38.2706 39.5034 38.2526C39.1412 38.2373 38.7264 38.2383 38.3124 38.2383C37.8981 38.2383 37.2246 38.3923 36.6552 39.0076C36.0855 39.6229 34.4797 41.1103 34.4797 44.1355C34.4797 47.1611 36.707 50.0842 37.0175 50.4948C37.3282 50.9049 41.3171 57.3113 47.6341 59.776C52.8842 61.8242 53.9526 61.4168 55.0921 61.3143C56.2316 61.2119 58.7692 59.8272 59.2871 58.3914C59.8051 56.9558 59.8051 55.7253 59.6497 55.468C59.4943 55.2118 59.0799 55.058 58.4584 54.7505C57.8367 54.443 54.7813 52.9553 54.2115 52.7503C53.6417 52.5454 53.2273 52.4429 52.813 53.0585C52.3986 53.6735 51.2084 55.058 50.8456 55.4681C50.4831 55.879 50.1205 55.9302 49.4989 55.6227C48.8773 55.3143 46.8756 54.6657 44.501 52.571C42.6535 50.9413 41.4062 48.9286 41.0434 48.3131C40.6809 47.6981 41.0047 47.365 41.3164 47.0584C41.5955 46.7829 41.9381 46.3407 42.2488 45.9816C42.5589 45.6226 42.6626 45.3663 42.8697 44.9564C43.0769 44.5457 42.9733 44.1866 42.8179 43.8792C42.6626 43.5717 41.4547 40.5308 40.902 39.3151Z" fill="white"/>
<defs>
<filter id="filter0_f_31_118" x="18.5863" y="21.7645" width="56.8274" height="56.6492" filterUnits="userSpaceOnUse" color-interpolation-filters="sRGB">
<feFlood flood-opacity="0" result="BackgroundImageFix"/>
<feBlend mode="normal" in="SourceGraphic" in2="BackgroundImageFix" result="shape"/>
<feGaussianBlur stdDeviation="1.70686" result="effect1_foregroundBlur_31_118"/>
</filter>
<filter id="filter1_d_31_118" x="0.664278" y="0.428785" width="92.6714" height="92.4932" filterUnits="userSpaceOnUse" color-interpolation-filters="sRGB">
<feFlood flood-opacity="0" result="BackgroundImageFix"/>
<feColorMatrix in="SourceAlpha" type="matrix" values="0 0 0 0 0 0 0 0 0 0 0 0 0 0 0 0 0 0 127 0" result="hardAlpha"/>
<feOffset dy="-3.41372"/>
<feGaussianBlur stdDeviation="10.6679"/>
<feColorMatrix type="matrix" values="0 0 0 0 0 0 0 0 0 0 0 0 0 0 0 0 0 0 0.21 0"/>
<feBlend mode="normal" in2="BackgroundImageFix" result="effect1_dropShadow_31_118"/>
<feBlend mode="normal" in="SourceGraphic" in2="effect1_dropShadow_31_118" result="shape"/>
</filter>
<linearGradient id="paint0_linear_31_118" x1="47.0146" y1="73.7867" x2="47.0146" y2="25.8594" gradientUnits="userSpaceOnUse">
<stop/>
<stop offset="1"/>
</linearGradient>
<linearGradient id="paint1_linear_31_118" x1="47.0133" y1="74.6461" x2="47.0133" y2="25.0001" gradientUnits="userSpaceOnUse">
<stop stop-color="#F9F9F9"/>
<stop offset="1" stop-color="white"/>
</linearGradient>
</defs>
</svg>
